<?xml version="1.0" encoding="UTF-8" standalone="no"?>
<!DOCTYPE svg PUBLIC "-//W3C//DTD SVG 1.1//EN" "http://www.w3.org/Graphics/SVG/1.1/DTD/svg11.dtd">
<svg xmlns="http://www.w3.org/2000/svg" version="1.1" viewBox="0.00 0.00 2160.00 660.00">
<g stroke-width="2.00" fill="none" stroke-linecap="butt">
<path stroke="#91d6f1" vector-effect="non-scaling-stroke" d="
  M 815.35 264.24
  Q 814.86 264.07 814.97 263.57
  C 822.37 228.15 836.51 193.89 856.83 164.09
  C 893.64 110.10 947.24 69.82 1010.33 51.57
  C 1067.85 34.92 1128.07 36.70 1184.65 56.79
  C 1189.93 58.67 1194.38 61.84 1198.64 65.34
  C 1227.03 88.64 1242.20 121.84 1240.68 158.66
  C 1238.82 203.86 1214.30 245.68 1184.90 279.27
  Q 1173.12 292.72 1161.20 306.20
  A 0.33 0.33 0.0 0 0 1161.45 306.75
  L 1399.50 306.75
  A 0.54 0.54 0.0 0 0 1400.04 306.18
  Q 1394.24 200.00 1327.23 119.64
  C 1297.70 84.24 1259.69 56.16 1217.69 37.14
  Q 1168.74 14.96 1116.25 10.68
  Q 1106.84 9.91 1096.27 9.79
  Q 1081.47 9.62 1070.48 10.17
  C 1031.34 12.13 989.57 22.74 952.71 41.05
  Q 866.71 83.78 818.92 166.85
  C 798.41 202.50 785.53 242.57 780.55 283.41
  A 0.33 0.32 -76.0 0 0 780.75 283.75
  Q 798.17 291.16 813.87 296.12
  Q 865.10 312.33 918.13 310.38
  Q 1013.56 306.86 1090.38 251.63
  C 1130.34 222.89 1162.74 184.30 1185.02 140.60
  A 0.51 0.51 0.0 0 0 1184.80 139.92
  L 1158.26 126.46
  A 0.54 0.53 26.8 0 0 1157.54 126.69
  C 1094.06 251.63 948.25 310.31 815.35 264.24"
/>
<path stroke="#91d6f1" vector-effect="non-scaling-stroke" d="
  M 935.24 191.67
  A 19.21 19.21 0.0 0 0 916.03 172.46
  A 19.21 19.21 0.0 0 0 896.82 191.67
  A 19.21 19.21 0.0 0 0 916.03 210.88
  A 19.21 19.21 0.0 0 0 935.24 191.67"
/>
<path stroke="#8cb0d0" vector-effect="non-scaling-stroke" d="
  M 1162.04 357.77
  C 1136.24 344.48 1105.10 341.71 1076.66 344.97
  Q 1051.21 347.89 1027.91 360.48
  Q 1016.20 366.81 1005.81 371.98
  C 985.81 381.93 961.58 383.69 939.45 381.14
  Q 922.01 379.13 908.03 372.28
  Q 900.88 368.78 882.55 359.06
  C 851.69 342.68 815.11 340.63 780.38 347.24
  Q 779.75 347.36 779.80 347.99
  Q 780.82 362.06 783.87 377.74
  Q 783.94 378.10 784.31 378.01
  C 799.46 374.27 816.15 373.74 832.01 375.40
  Q 851.70 377.46 869.15 386.79
  Q 881.50 393.40 892.19 398.79
  C 916.23 410.91 942.40 414.14 969.79 412.40
  Q 999.45 410.51 1025.37 396.64
  Q 1035.34 391.32 1045.54 386.03
  C 1067.01 374.90 1091.76 372.75 1115.68 375.62
  Q 1132.62 377.64 1146.19 384.34
  Q 1157.23 389.79 1171.56 397.46
  C 1195.80 410.43 1222.88 414.16 1251.28 412.45
  Q 1282.64 410.56 1310.33 395.16
  Q 1322.93 388.15 1333.24 383.42
  C 1351.97 374.82 1373.62 373.38 1394.76 375.26
  A 0.69 0.68 6.8 0 0 1395.49 374.69
  Q 1398.07 359.97 1399.27 345.38
  Q 1399.32 344.82 1398.75 344.76
  C 1367.93 341.59 1337.74 345.50 1310.34 360.31
  Q 1295.13 368.54 1287.05 372.40
  Q 1272.45 379.37 1255.47 381.20
  C 1232.06 383.70 1207.76 381.66 1187.21 370.86
  Q 1174.50 364.19 1162.04 357.77"
/>
<path stroke="#8cb0d0" vector-effect="non-scaling-stroke" d="
  M 1367.56 458.85
  C 1372.56 448.96 1376.98 438.70 1380.75 428.55
  A 0.29 0.28 10.0 0 0 1380.48 428.17
  Q 1348.36 427.90 1322.91 438.72
  C 1310.92 443.82 1300.02 450.48 1288.38 456.15
  C 1268.76 465.70 1247.78 467.62 1225.81 465.94
  Q 1205.32 464.37 1188.29 455.77
  Q 1178.29 450.72 1167.06 444.66
  C 1143.49 431.96 1119.27 427.57 1091.92 428.25
  Q 1062.09 428.98 1037.50 440.12
  C 1023.51 446.47 1010.64 455.12 996.38 460.31
  C 980.39 466.14 963.26 467.18 945.78 466.14
  Q 921.48 464.68 899.41 452.34
  Q 886.39 445.06 874.98 439.85
  C 851.49 429.15 824.84 426.64 798.84 428.88
  A 0.54 0.53 -12.5 0 0 798.38 429.59
  Q 803.96 444.35 811.09 458.52
  A 0.82 0.82 0.0 0 0 811.84 458.98
  C 832.95 458.40 852.24 461.89 871.10 472.13
  Q 880.56 477.27 889.86 482.07
  C 916.56 495.88 946.12 499.33 976.11 496.21
  Q 1003.89 493.33 1030.20 478.49
  Q 1041.97 471.86 1052.46 467.21
  C 1070.92 459.02 1092.88 457.69 1113.38 459.70
  C 1128.78 461.22 1142.59 466.10 1155.91 473.56
  Q 1166.99 479.77 1177.61 484.75
  C 1200.45 495.47 1225.44 498.44 1251.00 496.85
  Q 1274.56 495.38 1294.63 487.03
  C 1306.43 482.13 1316.87 475.85 1328.31 470.04
  Q 1345.49 461.32 1366.75 459.40
  Q 1367.31 459.35 1367.56 458.85"
/>
<path stroke="#8cb0d0" vector-effect="non-scaling-stroke" d="
  M 1319.53 524.51
  Q 1307.49 530.48 1291.45 539.00
  C 1271.17 549.78 1248.40 552.18 1225.32 550.29
  Q 1212.12 549.22 1200.19 545.13
  C 1189.32 541.41 1178.52 535.19 1167.65 529.32
  C 1154.09 521.99 1139.28 516.78 1123.85 514.45
  Q 1098.93 510.68 1073.61 514.13
  C 1056.78 516.43 1041.28 521.89 1026.15 530.12
  Q 1017.31 534.94 1008.72 539.34
  C 987.33 550.31 963.89 552.49 939.99 549.95
  Q 920.36 547.86 903.02 538.57
  C 883.52 528.13 868.74 519.98 848.80 515.69
  Q 847.78 515.47 848.44 516.28
  Q 876.17 550.18 911.57 574.87
  Q 912.69 575.65 914.02 576.05
  Q 931.06 581.20 954.58 581.60
  Q 995.84 582.31 1028.90 563.57
  Q 1041.55 556.40 1052.55 551.54
  C 1067.06 545.14 1083.50 543.08 1099.84 543.28
  C 1116.77 543.50 1133.04 546.34 1147.43 553.65
  Q 1158.37 559.20 1170.92 565.85
  C 1197.49 579.94 1225.60 583.33 1256.81 580.81
  Q 1258.63 580.67 1259.99 579.77
  Q 1295.84 556.21 1324.81 522.88
  Q 1325.43 522.17 1324.53 522.47
  Q 1321.80 523.39 1319.53 524.51"
/>
<path stroke="#8cb0d0" vector-effect="non-scaling-stroke" d="
  M 1013.99 621.62
  Q 1095.72 641.40 1175.72 618.65
  A 0.30 0.30 0.0 0 0 1175.79 618.10
  Q 1164.92 611.92 1154.69 607.54
  C 1131.13 597.47 1104.48 595.26 1079.07 597.84
  Q 1058.84 599.88 1041.79 607.08
  Q 1029.73 612.17 1014.39 620.86
  Q 1014.22 620.96 1014.04 621.01
  Q 1013.82 621.07 1013.78 621.29
  A 0.28 0.28 0.0 0 0 1013.99 621.62"
/>
<path stroke="#91d6f1" vector-effect="non-scaling-stroke" d="
  M 1266.95 116.99
  C 1281.08 173.36 1260.67 229.60 1227.25 275.42
  A 0.37 0.36 -71.9 0 0 1227.54 276.00
  L 1365.31 276.01
  Q 1366.01 276.01 1365.90 275.31
  C 1354.63 205.30 1317.56 142.79 1261.72 99.27
  Q 1260.88 98.62 1261.26 99.61
  C 1263.45 105.30 1265.46 111.03 1266.95 116.99"
/>
</g>
<path fill="#ffffff" d="
  M 0.00 0.00
  L 2160.00 0.00
  L 2160.00 660.00
  L 0.00 660.00
  L 0.00 0.00
  Z
  M 815.35 264.24
  Q 814.86 264.07 814.97 263.57
  C 822.37 228.15 836.51 193.89 856.83 164.09
  C 893.64 110.10 947.24 69.82 1010.33 51.57
  C 1067.85 34.92 1128.07 36.70 1184.65 56.79
  C 1189.93 58.67 1194.38 61.84 1198.64 65.34
  C 1227.03 88.64 1242.20 121.84 1240.68 158.66
  C 1238.82 203.86 1214.30 245.68 1184.90 279.27
  Q 1173.12 292.72 1161.20 306.20
  A 0.33 0.33 0.0 0 0 1161.45 306.75
  L 1399.50 306.75
  A 0.54 0.54 0.0 0 0 1400.04 306.18
  Q 1394.24 200.00 1327.23 119.64
  C 1297.70 84.24 1259.69 56.16 1217.69 37.14
  Q 1168.74 14.96 1116.25 10.68
  Q 1106.84 9.91 1096.27 9.79
  Q 1081.47 9.62 1070.48 10.17
  C 1031.34 12.13 989.57 22.74 952.71 41.05
  Q 866.71 83.78 818.92 166.85
  C 798.41 202.50 785.53 242.57 780.55 283.41
  A 0.33 0.32 -76.0 0 0 780.75 283.75
  Q 798.17 291.16 813.87 296.12
  Q 865.10 312.33 918.13 310.38
  Q 1013.56 306.86 1090.38 251.63
  C 1130.34 222.89 1162.74 184.30 1185.02 140.60
  A 0.51 0.51 0.0 0 0 1184.80 139.92
  L 1158.26 126.46
  A 0.54 0.53 26.8 0 0 1157.54 126.69
  C 1094.06 251.63 948.25 310.31 815.35 264.24
  Z
  M 935.24 191.67
  A 19.21 19.21 0.0 0 0 916.03 172.46
  A 19.21 19.21 0.0 0 0 896.82 191.67
  A 19.21 19.21 0.0 0 0 916.03 210.88
  A 19.21 19.21 0.0 0 0 935.24 191.67
  Z
  M 1162.04 357.77
  C 1136.24 344.48 1105.10 341.71 1076.66 344.97
  Q 1051.21 347.89 1027.91 360.48
  Q 1016.20 366.81 1005.81 371.98
  C 985.81 381.93 961.58 383.69 939.45 381.14
  Q 922.01 379.13 908.03 372.28
  Q 900.88 368.78 882.55 359.06
  C 851.69 342.68 815.11 340.63 780.38 347.24
  Q 779.75 347.36 779.80 347.99
  Q 780.82 362.06 783.87 377.74
  Q 783.94 378.10 784.31 378.01
  C 799.46 374.27 816.15 373.74 832.01 375.40
  Q 851.70 377.46 869.15 386.79
  Q 881.50 393.40 892.19 398.79
  C 916.23 410.91 942.40 414.14 969.79 412.40
  Q 999.45 410.51 1025.37 396.64
  Q 1035.34 391.32 1045.54 386.03
  C 1067.01 374.90 1091.76 372.75 1115.68 375.62
  Q 1132.62 377.64 1146.19 384.34
  Q 1157.23 389.79 1171.56 397.46
  C 1195.80 410.43 1222.88 414.16 1251.28 412.45
  Q 1282.64 410.56 1310.33 395.16
  Q 1322.93 388.15 1333.24 383.42
  C 1351.97 374.82 1373.62 373.38 1394.76 375.26
  A 0.69 0.68 6.8 0 0 1395.49 374.69
  Q 1398.07 359.97 1399.27 345.38
  Q 1399.32 344.82 1398.75 344.76
  C 1367.93 341.59 1337.74 345.50 1310.34 360.31
  Q 1295.13 368.54 1287.05 372.40
  Q 1272.45 379.37 1255.47 381.20
  C 1232.06 383.70 1207.76 381.66 1187.21 370.86
  Q 1174.50 364.19 1162.04 357.77
  Z
  M 1367.56 458.85
  C 1372.56 448.96 1376.98 438.70 1380.75 428.55
  A 0.29 0.28 10.0 0 0 1380.48 428.17
  Q 1348.36 427.90 1322.91 438.72
  C 1310.92 443.82 1300.02 450.48 1288.38 456.15
  C 1268.76 465.70 1247.78 467.62 1225.81 465.94
  Q 1205.32 464.37 1188.29 455.77
  Q 1178.29 450.72 1167.06 444.66
  C 1143.49 431.96 1119.27 427.57 1091.92 428.25
  Q 1062.09 428.98 1037.50 440.12
  C 1023.51 446.47 1010.64 455.12 996.38 460.31
  C 980.39 466.14 963.26 467.18 945.78 466.14
  Q 921.48 464.68 899.41 452.34
  Q 886.39 445.06 874.98 439.85
  C 851.49 429.15 824.84 426.64 798.84 428.88
  A 0.54 0.53 -12.5 0 0 798.38 429.59
  Q 803.96 444.35 811.09 458.52
  A 0.82 0.82 0.0 0 0 811.84 458.98
  C 832.95 458.40 852.24 461.89 871.10 472.13
  Q 880.56 477.27 889.86 482.07
  C 916.56 495.88 946.12 499.33 976.11 496.21
  Q 1003.89 493.33 1030.20 478.49
  Q 1041.97 471.86 1052.46 467.21
  C 1070.92 459.02 1092.88 457.69 1113.38 459.70
  C 1128.78 461.22 1142.59 466.10 1155.91 473.56
  Q 1166.99 479.77 1177.61 484.75
  C 1200.45 495.47 1225.44 498.44 1251.00 496.85
  Q 1274.56 495.38 1294.63 487.03
  C 1306.43 482.13 1316.87 475.85 1328.31 470.04
  Q 1345.49 461.32 1366.75 459.40
  Q 1367.31 459.35 1367.56 458.85
  Z
  M 1319.53 524.51
  Q 1307.49 530.48 1291.45 539.00
  C 1271.17 549.78 1248.40 552.18 1225.32 550.29
  Q 1212.12 549.22 1200.19 545.13
  C 1189.32 541.41 1178.52 535.19 1167.65 529.32
  C 1154.09 521.99 1139.28 516.78 1123.85 514.45
  Q 1098.93 510.68 1073.61 514.13
  C 1056.78 516.43 1041.28 521.89 1026.15 530.12
  Q 1017.31 534.94 1008.72 539.34
  C 987.33 550.31 963.89 552.49 939.99 549.95
  Q 920.36 547.86 903.02 538.57
  C 883.52 528.13 868.74 519.98 848.80 515.69
  Q 847.78 515.47 848.44 516.28
  Q 876.17 550.18 911.57 574.87
  Q 912.69 575.65 914.02 576.05
  Q 931.06 581.20 954.58 581.60
  Q 995.84 582.31 1028.90 563.57
  Q 1041.55 556.40 1052.55 551.54
  C 1067.06 545.14 1083.50 543.08 1099.84 543.28
  C 1116.77 543.50 1133.04 546.34 1147.43 553.65
  Q 1158.37 559.20 1170.92 565.85
  C 1197.49 579.94 1225.60 583.33 1256.81 580.81
  Q 1258.63 580.67 1259.99 579.77
  Q 1295.84 556.21 1324.81 522.88
  Q 1325.43 522.17 1324.53 522.47
  Q 1321.80 523.39 1319.53 524.51
  Z
  M 1013.99 621.62
  Q 1095.72 641.40 1175.72 618.65
  A 0.30 0.30 0.0 0 0 1175.79 618.10
  Q 1164.92 611.92 1154.69 607.54
  C 1131.13 597.47 1104.48 595.26 1079.07 597.84
  Q 1058.84 599.88 1041.79 607.08
  Q 1029.73 612.17 1014.39 620.86
  Q 1014.22 620.96 1014.04 621.01
  Q 1013.82 621.07 1013.78 621.29
  A 0.28 0.28 0.0 0 0 1013.99 621.62
  Z"
/>
<path fill="#23ace3" d="
  M 815.35 264.24
  C 948.25 310.31 1094.06 251.63 1157.54 126.69
  A 0.54 0.53 26.8 0 1 1158.26 126.46
  L 1184.80 139.92
  A 0.51 0.51 0.0 0 1 1185.02 140.60
  C 1162.74 184.30 1130.34 222.89 1090.38 251.63
  Q 1013.56 306.86 918.13 310.38
  Q 865.10 312.33 813.87 296.12
  Q 798.17 291.16 780.75 283.75
  A 0.33 0.32 -76.0 0 1 780.55 283.41
  C 785.53 242.57 798.41 202.50 818.92 166.85
  Q 866.71 83.78 952.71 41.05
  C 989.57 22.74 1031.34 12.13 1070.48 10.17
  Q 1081.47 9.62 1096.27 9.79
  Q 1106.84 9.91 1116.25 10.68
  Q 1168.74 14.96 1217.69 37.14
  C 1259.69 56.16 1297.70 84.24 1327.23 119.64
  Q 1394.24 200.00 1400.04 306.18
  A 0.54 0.54 0.0 0 1 1399.50 306.75
  L 1161.45 306.75
  A 0.33 0.33 0.0 0 1 1161.20 306.20
  Q 1173.12 292.72 1184.90 279.27
  C 1214.30 245.68 1238.82 203.86 1240.68 158.66
  C 1242.20 121.84 1227.03 88.64 1198.64 65.34
  C 1194.38 61.84 1189.93 58.67 1184.65 56.79
  C 1128.07 36.70 1067.85 34.92 1010.33 51.57
  C 947.24 69.82 893.64 110.10 856.83 164.09
  C 836.51 193.89 822.37 228.15 814.97 263.57
  Q 814.86 264.07 815.35 264.24
  Z
  M 1266.95 116.99
  C 1281.08 173.36 1260.67 229.60 1227.25 275.42
  A 0.37 0.36 -71.9 0 0 1227.54 276.00
  L 1365.31 276.01
  Q 1366.01 276.01 1365.90 275.31
  C 1354.63 205.30 1317.56 142.79 1261.72 99.27
  Q 1260.88 98.62 1261.26 99.61
  C 1263.45 105.30 1265.46 111.03 1266.95 116.99
  Z"
/>
<path fill="#ffffff" d="
  M 1227.25 275.42
  C 1260.67 229.60 1281.08 173.36 1266.95 116.99
  C 1265.46 111.03 1263.45 105.30 1261.26 99.61
  Q 1260.88 98.62 1261.72 99.27
  C 1317.56 142.79 1354.63 205.30 1365.90 275.31
  Q 1366.01 276.01 1365.31 276.01
  L 1227.54 276.00
  A 0.37 0.36 -71.9 0 1 1227.25 275.42
  Z"
/>
<circle fill="#23ace3" cx="916.03" cy="191.67" r="19.21"/>
<path fill="#1960a0" d="
  M 1076.66 344.97
  C 1105.10 341.71 1136.24 344.48 1162.04 357.77
  Q 1174.50 364.19 1187.21 370.86
  C 1207.76 381.66 1232.06 383.70 1255.47 381.20
  Q 1272.45 379.37 1287.05 372.40
  Q 1295.13 368.54 1310.34 360.31
  C 1337.74 345.50 1367.93 341.59 1398.75 344.76
  Q 1399.32 344.82 1399.27 345.38
  Q 1398.07 359.97 1395.49 374.69
  A 0.69 0.68 6.8 0 1 1394.76 375.26
  C 1373.62 373.38 1351.97 374.82 1333.24 383.42
  Q 1322.93 388.15 1310.33 395.16
  Q 1282.64 410.56 1251.28 412.45
  C 1222.88 414.16 1195.80 410.43 1171.56 397.46
  Q 1157.23 389.79 1146.19 384.34
  Q 1132.62 377.64 1115.68 375.62
  C 1091.76 372.75 1067.01 374.90 1045.54 386.03
  Q 1035.34 391.32 1025.37 396.64
  Q 999.45 410.51 969.79 412.40
  C 942.40 414.14 916.23 410.91 892.19 398.79
  Q 881.50 393.40 869.15 386.79
  Q 851.70 377.46 832.01 375.40
  C 816.15 373.74 799.46 374.27 784.31 378.01
  Q 783.94 378.10 783.87 377.74
  Q 780.82 362.06 779.80 347.99
  Q 779.75 347.36 780.38 347.24
  C 815.11 340.63 851.69 342.68 882.55 359.06
  Q 900.88 368.78 908.03 372.28
  Q 922.01 379.13 939.45 381.14
  C 961.58 383.69 985.81 381.93 1005.81 371.98
  Q 1016.20 366.81 1027.91 360.48
  Q 1051.21 347.89 1076.66 344.97
  Z"
/>
<path fill="#1960a0" d="
  M 1380.75 428.55
  C 1376.98 438.70 1372.56 448.96 1367.56 458.85
  Q 1367.31 459.35 1366.75 459.40
  Q 1345.49 461.32 1328.31 470.04
  C 1316.87 475.85 1306.43 482.13 1294.63 487.03
  Q 1274.56 495.38 1251.00 496.85
  C 1225.44 498.44 1200.45 495.47 1177.61 484.75
  Q 1166.99 479.77 1155.91 473.56
  C 1142.59 466.10 1128.78 461.22 1113.38 459.70
  C 1092.88 457.69 1070.92 459.02 1052.46 467.21
  Q 1041.97 471.86 1030.20 478.49
  Q 1003.89 493.33 976.11 496.21
  C 946.12 499.33 916.56 495.88 889.86 482.07
  Q 880.56 477.27 871.10 472.13
  C 852.24 461.89 832.95 458.40 811.84 458.98
  A 0.82 0.82 0.0 0 1 811.09 458.52
  Q 803.96 444.35 798.38 429.59
  A 0.54 0.53 -12.5 0 1 798.84 428.88
  C 824.84 426.64 851.49 429.15 874.98 439.85
  Q 886.39 445.06 899.41 452.34
  Q 921.48 464.68 945.78 466.14
  C 963.26 467.18 980.39 466.14 996.38 460.31
  C 1010.64 455.12 1023.51 446.47 1037.50 440.12
  Q 1062.09 428.98 1091.92 428.25
  C 1119.27 427.57 1143.49 431.96 1167.06 444.66
  Q 1178.29 450.72 1188.29 455.77
  Q 1205.32 464.37 1225.81 465.94
  C 1247.78 467.62 1268.76 465.70 1288.38 456.15
  C 1300.02 450.48 1310.92 443.82 1322.91 438.72
  Q 1348.36 427.90 1380.48 428.17
  A 0.29 0.28 10.0 0 1 1380.75 428.55
  Z"
/>
<path fill="#1960a0" d="
  M 1319.53 524.51
  Q 1321.80 523.39 1324.53 522.47
  Q 1325.43 522.17 1324.81 522.88
  Q 1295.84 556.21 1259.99 579.77
  Q 1258.63 580.67 1256.81 580.81
  C 1225.60 583.33 1197.49 579.94 1170.92 565.85
  Q 1158.37 559.20 1147.43 553.65
  C 1133.04 546.34 1116.77 543.50 1099.84 543.28
  C 1083.50 543.08 1067.06 545.14 1052.55 551.54
  Q 1041.55 556.40 1028.90 563.57
  Q 995.84 582.31 954.58 581.60
  Q 931.06 581.20 914.02 576.05
  Q 912.69 575.65 911.57 574.87
  Q 876.17 550.18 848.44 516.28
  Q 847.78 515.47 848.80 515.69
  C 868.74 519.98 883.52 528.13 903.02 538.57
  Q 920.36 547.86 939.99 549.95
  C 963.89 552.49 987.33 550.31 1008.72 539.34
  Q 1017.31 534.94 1026.15 530.12
  C 1041.28 521.89 1056.78 516.43 1073.61 514.13
  Q 1098.93 510.68 1123.85 514.45
  C 1139.28 516.78 1154.09 521.99 1167.65 529.32
  C 1178.52 535.19 1189.32 541.41 1200.19 545.13
  Q 1212.12 549.22 1225.32 550.29
  C 1248.40 552.18 1271.17 549.78 1291.45 539.00
  Q 1307.49 530.48 1319.53 524.51
  Z"
/>
<path fill="#1960a0" d="
  M 1013.99 621.62
  A 0.28 0.28 0.0 0 1 1013.78 621.29
  Q 1013.82 621.07 1014.04 621.01
  Q 1014.22 620.96 1014.39 620.86
  Q 1029.73 612.17 1041.79 607.08
  Q 1058.84 599.88 1079.07 597.84
  C 1104.48 595.26 1131.13 597.47 1154.69 607.54
  Q 1164.92 611.92 1175.79 618.10
  A 0.30 0.30 0.0 0 1 1175.72 618.65
  Q 1095.72 641.40 1013.99 621.62
  Z"
/>
</svg>
